<svg xmlns="http://www.w3.org/2000/svg" width="34.385" height="34.385" viewBox="0 0 34.385 34.385"><defs><style>.a{fill:#af8041;}</style></defs><path class="a" d="M329.354,122.517v3.534h-.405c-.606,0-1.212,0-1.819,0a.879.879,0,0,0-.98.972c-.012.629.006,1.259-.009,1.888-.006.243.1.292.312.29.851-.008,1.7,0,2.553,0h.419c-.049.52-.091.993-.139,1.464-.065.649-.145,1.3-.2,1.947-.017.217-.1.274-.3.272-.746-.007-1.492.012-2.238-.01-.318-.009-.415.082-.414.408.012,3.182,0,6.365.015,9.547,0,.346-.075.461-.441.453-1.165-.025-2.332-.02-3.5,0-.309,0-.394-.084-.393-.392.011-3.194,0-6.388.014-9.582,0-.333-.083-.454-.427-.432-.441.028-.886,0-1.328.01-.22.006-.312-.058-.309-.295q.015-1.556,0-3.112c0-.217.08-.284.288-.28.478.01.956-.009,1.434.008.257.009.347-.068.341-.334-.016-.687-.009-1.375,0-2.063a4.81,4.81,0,0,1,.677-2.535,3.811,3.811,0,0,1,3.3-1.785c1.14-.049,2.284-.008,3.426-.006A.525.525,0,0,1,329.354,122.517Z" transform="translate(-307.405 -115.68)"/><path class="a" d="M247.243,73.246a17.192,17.192,0,1,0,17.192,17.193A17.212,17.212,0,0,0,247.243,73.246Zm14.734,17.193A14.734,14.734,0,1,1,247.243,75.7,14.751,14.751,0,0,1,261.977,90.439Z" transform="translate(-230.051 -73.246)"/></svg>