<svg class="home" xmlns="http://www.w3.org/2000/svg" width="34.352" height="30.748" viewBox="0 0 34.352 30.748">
<defs>
    <style> .a {
        fill:#b87d31;
        stroke:#b87d31;
        }
    </style>
</defs>
    
    <g transform="translate(-876.574 -437.585)"><path class="a" d="M910.374,450.177c-.038-.046-.075-.1-.114-.147a1.879,1.879,0,0,0-.325-.362c-.31-.246-.634-.48-.947-.707l-.35-.254-10.695-7.832-.92-.675c-.827-.607-1.682-1.234-2.527-1.845a1.091,1.091,0,0,0-1.468,0c-.111.076-.218.155-.318.228l-12.4,9.084-.3.222c-.8.586-1.628,1.192-2.439,1.792a1.06,1.06,0,0,0-.4,1.252,1.029,1.029,0,0,0,1.1.7,1.684,1.684,0,0,0,.7-.306c2.275-1.654,4.582-3.343,6.814-4.976l1.936-1.416c1.956-1.431,3.979-2.911,5.965-4.372a.235.235,0,0,1,.091-.051.188.188,0,0,1,.07.044c.154.127.317.241.475.352.079.055.157.11.234.167l4.458,3.265,9.526,6.975a1.482,1.482,0,0,0,.856.341.882.882,0,0,0,.195-.022,1.312,1.312,0,0,0,.817-.748l.027-.051v-.59Z" transform="translate(0 0)"/><path class="a" d="M935.593,556.71a1.075,1.075,0,0,0-2.14-.026,2.5,2.5,0,0,0-.012.334v.078q0,6.437,0,12.874v.2h-1.835q-2.135,0-4.271,0h-.28c0-.033,0-.073,0-.109,0-.053,0-.114,0-.184,0-.759,0-1.532.005-2.279.008-1.612.016-3.279-.032-4.918a4.29,4.29,0,0,0-1.666-3.234,4.492,4.492,0,0,0-7.29,3.553c-.011,2.194-.01,4.495,0,7.033a.477.477,0,0,1-.012.131.472.472,0,0,1-.138.011c-1.541-.009-3.107-.008-4.622-.007h-1.621V567.4q0-5.149,0-10.3v-.069a2.282,2.282,0,0,0-.024-.419,1.074,1.074,0,0,0-2.128.088,2.636,2.636,0,0,0-.01.281v.7q0,6.681,0,13.361a1.116,1.116,0,0,0,1.274,1.286h8.155a1.118,1.118,0,0,0,1.276-1.287q0-1.806,0-3.612,0-1.34,0-2.68c0-.181,0-.362,0-.543,0-.43-.007-.875.011-1.309a2.331,2.331,0,1,1,4.658.177c0,1.753,0,3.537,0,5.261q0,1.35,0,2.7c0,.894.4,1.293,1.3,1.293h8.058c.956,0,1.346-.39,1.346-1.344q0-6.967,0-13.933v-.044A2.874,2.874,0,0,0,935.593,556.71Z" transform="translate(-28.802 -104.498)"/></g></svg>