<svg xmlns="http://www.w3.org/2000/svg" width="31.65" height="31.649" viewBox="0 0 31.65 31.649"><defs><style>.a{fill:#af8041;}</style></defs><path class="a" d="M931.274,73.222h15.7a1.363,1.363,0,0,0,.2.055,8.741,8.741,0,0,1,7.6,6.954c.066.32.116.643.173.965v15.7c-.053.3-.1.6-.16.9a8.731,8.731,0,0,1-8.607,7.066q-7.058.015-14.117,0a8.571,8.571,0,0,1-1.262-.084,8.735,8.735,0,0,1-7.5-8.7q-.009-7.058,0-14.117a8.729,8.729,0,0,1,6.944-8.551C930.587,73.334,930.932,73.283,931.274,73.222Zm-5.16,15.823q0,3.429,0,6.859a6.784,6.784,0,0,0,.062,1.078,5.876,5.876,0,0,0,5.956,5.069q6.982.009,13.964-.007a6.724,6.724,0,0,0,1.618-.19,5.873,5.873,0,0,0,4.412-5.752c.015-1.555,0-3.11,0-4.665,0-3.2.036-6.406-.016-9.608a5.832,5.832,0,0,0-5.9-5.787c-4.727-.019-9.454,0-14.181-.005a5.38,5.38,0,0,0-2.342.476,5.8,5.8,0,0,0-3.578,5.519C926.095,84.37,926.114,86.708,926.114,89.045Z" transform="translate(-923.297 -73.222)"/><path class="a" d="M994.49,136.231a8.153,8.153,0,1,1-8.15,8.163A8.165,8.165,0,0,1,994.49,136.231Zm-5.337,8.152a5.34,5.34,0,1,0,5.348-5.338A5.328,5.328,0,0,0,989.153,144.383Z" transform="translate(-978.666 -128.561)"/><path class="a" d="M1110.35,118.692a2.058,2.058,0,1,1-2.076-2.051A2.073,2.073,0,0,1,1110.35,118.692Z" transform="translate(-1083.967 -111.357)"/></svg>