<svg xmlns="http://www.w3.org/2000/svg" width="279.797" height="118.446" viewBox="0 0 279.797 118.446"><g transform="matrix(0.996, 0.087, -0.087, 0.996, 7.721, -3.121)"><g transform="translate(-0.03 0.026)"><path d="M263.233,20.31c-6.208.817-12.434,1.531-18.642,2.36h-.036a.854.854,0,0,1-.218-1.694A168.2,168.2,0,0,0,264.612,16.4a1.634,1.634,0,0,0-.775-.061c-7.424.974-14.885,1.712-22.351,2.342-.9.079-1.585,0-1.906-1.107,8.047-.75,15.98-2.348,24.1-2.124a.781.781,0,0,0-.466-.218c-.962-.151-1.918-.327-2.88-.43-7.261-.787-14.522-.188-21.813,0a2.7,2.7,0,0,1-.95-.127,28.761,28.761,0,0,1-9.59,1.174,13.838,13.838,0,0,1-3.322-.454.7.7,0,0,0-.248,0c-5.149.284-10.286.551-15.453.859-.7.036-.938-.315-1.21-.823A31.179,31.179,0,0,0,176.684.307a61.259,61.259,0,0,0-11.835,3.3c-4.532,1.573-9.076,2.42-13.759.605-.738-.284-.835,0-.823.653,0,1.513.151,3.025-.605,4.471a9.8,9.8,0,0,1-7.273,5.246c-5.542,1.053-10.891-.272-16.216-1.628l-.109-.036c-2.656-1-3.461-2.42-2.65-4.465.514-1.295,1.017-2.59,1.561-3.981a.853.853,0,0,0-1.21-1.053c-2.227,1.277-4.163,2.384-6.22,3.745a.9.9,0,0,1-.3.127c-5.978,1.3-11.72.145-17.511-.5-6.275-.7-12.343-.278-18.007,2.832a41.827,41.827,0,0,0-19.2,22.012c-6.825,17.45-4.09,34.053,5.288,49.815A22.918,22.918,0,0,0,79.843,91.69c.442.163.605.539.9.853A21.5,21.5,0,0,0,87.933,98.1a23.771,23.771,0,0,0,20.838.1,106.8,106.8,0,0,0,11.369-6.389c1.041-.605,2.094-1.21,3.164-1.737a.859.859,0,0,0,.393-1.131,3.709,3.709,0,0,1,.478-3.751l1.144-1.6c-3.025.72-13.578,7.563-14.34,7.92a44.445,44.445,0,0,1-4.018,2.366,18.556,18.556,0,0,1-2.087,1.125,21.686,21.686,0,0,1-13.118,1.579,22.8,22.8,0,0,1-7.152-2.517.859.859,0,0,1,.3-1.591c9.748-1.265,32.716-12.1,36.752-13.8a.853.853,0,0,0,.52-.853,4.6,4.6,0,0,1,0-.5c0-.551.073-1.1.127-1.64a.847.847,0,0,0-1.21-.853c-5.506,2.565-10.238,6.486-15.508,9.5A50.694,50.694,0,0,1,92.423,90.05c-6.408,1.6-12.47,1.319-17.638-3.092a30.732,30.732,0,0,1-8.053-11.7c-.49-1.144-.932-2.3-1.313-3.479a.859.859,0,0,1,1.464-.817l.085.1a.859.859,0,0,0,1.21.139A294.843,294.843,0,0,1,93.191,53.583c3.267-2.093,6.656-4.048,9.941-6.051.169-.1.424-.109.478-.569a94.773,94.773,0,0,0-11.593,4.314c-2.5,1.089-4.943,2.287-7.37,3.534A.853.853,0,0,1,83.607,53.5c3.3-3.9,6.759-7.66,10.2-11.5a.853.853,0,0,0-1.168-1.21c-4.1,3.177-9.161,7.509-12.2,10.419-5.258,5.016-10.129,10.407-15.127,15.841a.859.859,0,0,1-1.452-.339,34.58,34.58,0,0,1-.956-4.52c-1.682-10.359-.811-20.433,3.818-29.963C70.888,23.65,76.9,16.813,85.87,12.965c3.86-1.658,7.866-1.688,11.98-1.265,3.7.381,18.182,1.089,19.876.551.532-.169.66.194.817.539a8.574,8.574,0,0,0,5.694,4.871c5.93,1.634,11.974,2.916,18.152,1.767,5.494-1.023,9.639-3.957,11.593-9.439.163-.46.3-.708.859-.672,4.435.309,8.471-1.168,12.549-2.68,3.14-1.18,6.19-2.59,9.487-3.152a29.868,29.868,0,0,1,25.794,7.333,24.434,24.434,0,0,1,3.794,4.235.865.865,0,0,1-.647,1.361c-2.342.145-4.586.284-6.837.436-20.572,1.373-41.144,3.025-61.717,5.191a131.854,131.854,0,0,0-13.856,2.142c-.744.182-8.507,2.42-9.294,2.523a70.055,70.055,0,0,0-9.572,4.423c14.2-5.446,29.14-5.331,43.964-6.014-2.094.387-4.181.8-6.281,1.162-9.639,1.652-19.259,3.413-28.523,6.656a32.674,32.674,0,0,0-10.891,6.051,53.33,53.33,0,0,1,6.5-2.971c6.093-2.215,12.47-3.1,18.83-4.066C143.514,29.6,159,28.406,174.512,27.4c15.835-1.035,31.687-1.858,47.48-3.455,2.741-.278,5.446-.605,8.2-.938.7-.091,1.259-.073,1.482.9-2.6.254-5.155.52-7.715.756-15.6,1.41-31.2,2.729-46.717,4.943-8.011,1.144-15.98,2.493-23.87,4.29a2.124,2.124,0,0,1-1.815-.224,5.21,5.21,0,0,0-3.279-.774c-8.755.563-17.48,1.337-25.957,3.812a48.92,48.92,0,0,0-14.086,6.541,11.5,11.5,0,0,1-2.668,1.44,3.169,3.169,0,0,1-4.417-2.13,6.825,6.825,0,0,1-.393-2.112c0-.714,0-1.428-.067-2.142a8.314,8.314,0,0,0-.1,5.161c.8,2.384,3.328,3.376,6.093,2.42a28.274,28.274,0,0,0,3.872-1.888c6.45-3.352,13.4-4.913,20.542-5.778,5.6-.678,11.224-.841,16.845-1.1a4.193,4.193,0,0,1,3.261,1.331.853.853,0,0,0,.781.242c19.362-3.945,38.978-6.014,58.552-8.471.454-.061,14.382-2.614,18.5-3.025a50.826,50.826,0,0,1,9.276-1.712c.448-.03.9-.067,1.349-.091a20.191,20.191,0,0,1,5.669-.254,1.083,1.083,0,0,0,.242,0c2.656-.545,5.149-1.047,7.636-1.567,3.812-.8,7.63-1.6,11.351-2.735A6.688,6.688,0,0,0,268.69,17.9,8.575,8.575,0,0,1,263.233,20.31Zm-46.917,0c3.957-1.047,11.406-1.482,12.228-.708Z" transform="translate(-23.173 -0.026)" fill="#faad54"/><path d="M417.535,39.29c1.125.66,2.063,1.131,2.916,1.724a4.477,4.477,0,0,1,1.464,6.311,5.034,5.034,0,0,1-6.765,1.815,4.7,4.7,0,0,1-1.96-1.755c-.339-.605-.569-.508-.98,0a5.529,5.529,0,0,1-5.9,1.628,5.276,5.276,0,0,1-4.078-4.381,3.9,3.9,0,0,1,.7-3.376c.781-.9,1.131-1.634.121-2.662a3.2,3.2,0,0,1,2.366.835,13.818,13.818,0,0,1-.2-2.19c.054-.841-.333-.865-.974-.781a60.838,60.838,0,0,1-6.535.914,7.689,7.689,0,0,1-5.446-1.658c-.98-.841-1.265-1.64-1.029-3.3a3.3,3.3,0,0,0,2.523,2.475,7.128,7.128,0,0,0,3.515-.145c1.694-.52,3.382-1.089,5.058-1.682a13.88,13.88,0,0,1,8.846-.115c1.458.442,2.91.9,4.393,1.21a8.447,8.447,0,0,0,8.392-3.739,4.817,4.817,0,0,0-.8-5.319c-1.21-1.446-2.765-2.451-4.78-1.936-1.5.387-2.172,1.6-2.42,3.213a4.165,4.165,0,0,1,3.818-5.567,7.669,7.669,0,0,1,7.527,3.993,7.5,7.5,0,0,1,0,8.731A13.413,13.413,0,0,1,417.535,39.29Zm-4.689,1.071c2.039.091,2.263.309,2.245,2.081a2.741,2.741,0,0,0,.877,2.063c.436.424,1.083.92,1.67.411.7-.605-.121-1.1-.448-1.428a6.868,6.868,0,0,1-2.233-4.018.731.731,0,0,0-.605-.653c-1.525-.478-3.025-1.047-4.544-1.537a9.419,9.419,0,0,0-3.54-.781c1.749,2.481,4.441,3.733,6.347,5.784C413.451,41.741,413.451,41.094,412.846,40.361Zm-7,0c-.121.75-.254,1.319-.309,1.888a1.942,1.942,0,0,0,1.912,2.19c.266,0,.635.085.768-.266s-.151-.472-.315-.647a12.1,12.1,0,0,1-2.051-3.177Z" transform="translate(-154.464 -8.218)" fill="#faad54"/><path d="M392.012,14.691c1.047-.962,2.469-1.21,3.025-1.985s-.762-1.954-.605-3.116a5.206,5.206,0,0,0,0-1.265c-.085-.726.23-1.737-1.21-1.464-1.21.23-1.549.605-1.271,1.882.121.569.345,1.113.526,1.682A3.842,3.842,0,0,1,388.957,4.9a5.747,5.747,0,0,1,5.373-2.935,4.151,4.151,0,0,1,3.951,2.85,4.841,4.841,0,0,1-.321,4.163c-.605,1.1-1.21,2.166-2.015,3.521a14.951,14.951,0,0,1,5.325-.448,15.732,15.732,0,0,1,4.992,1.428,5.573,5.573,0,0,1,.085-3.794,1.724,1.724,0,0,0-.932-2.148c-.775-.345-1.319.284-1.761.9-.121.163-.26.321-.405.508a2.584,2.584,0,0,1-.756-3.025,3.63,3.63,0,0,1,2.82-2.469,4.78,4.78,0,0,1,5.252,2.862A4.883,4.883,0,0,1,409.051,12c-.175.121-.363.212-.545.327-1.549.968-1.6,1.464-.121,2.42,2.239,1.482,3.63,3.782,5.446,5.639.266.266.514.551.841.908a5.96,5.96,0,0,1-4.078-.5c-3.237-1.434-6.329-3.195-9.766-4.175a84.708,84.708,0,0,0-8.816-1.936Z" transform="translate(-153.441 -0.79)" fill="#faad54"/><path d="M143.062,91.113c-1.361,2.42-4.018,2.856-5.869,1.144a6.56,6.56,0,0,1-1.071-7.866c2.451-4.871,6.547-7.866,11.5-9.832,6.577-2.608,13.4-2.481,20.27-1.591,2.511.327,5.01.756,7.521,1.131a7.037,7.037,0,0,0,3.025-.121,2.741,2.741,0,0,0,1.628-1.144,1.361,1.361,0,0,0,.169-1.549,1.131,1.131,0,0,0-1.47-.357c-.145.061-.29.139-.466-.042a1.815,1.815,0,0,1,2.106-.7A1.991,1.991,0,0,1,181.8,72a3.824,3.824,0,0,1-1.44,3.479,7.345,7.345,0,0,1-4.677,1.706c-4.145.206-8.283-.145-12.428-.133-6.347,0-12.585.605-18.273,3.806a16.754,16.754,0,0,0-5.905,5.076,7.048,7.048,0,0,0-.714,1.331A3.779,3.779,0,0,0,139.1,91.5C140.007,92.281,141.235,92.19,143.062,91.113Z" transform="translate(-53.416 -27.693)" fill="#faad54"/><path d="M235.008,90.788,124.553,102.061,1.368,114.827v.2H1.4c-.454.883-.926,1.755-1.434,2.6l1.682-.091.042.351,5.778-.66,7.037-.417c-.194.375-.363.569-.375.762-.079,1.041-.853,1.289-2.021,1.325a28.6,28.6,0,0,0-3.025.381c-.962.133-2,.793-2.8.478s-.738-1.313-1.174-1.973c-1.815.944-2.305,3.86-1.767,5.446.139.393.563.272.859.278A34.192,34.192,0,0,0,15.169,122c1.815-.557,2.638-1.96,2-3.237-.175-.345-.448-.653-.653-.986-.563-.908-.472-1.035.781-1.131.75-.061,1.495-.1,2.245-.175a46.343,46.343,0,0,0,9.645-1.688l-.472.036,83.693-9.536,12.307-1.21,30.78-3.316L170.889,99.1l7.7-.835,7.69-.908,30.749-3.63,15.363-1.966,7.684-.986,1-.139,7.043-.8-.054-.5ZM20.99,115.178H20q-8.592-.182-17.2-.242l6.3-.436,7.721-.605,15.435-1.21,30.858-2.693,7.709-.678,7.709-.744,2.578-.248Z" transform="translate(0.03 -35.295)" fill="#faad54"/></g></g></svg>