<svg xmlns="http://www.w3.org/2000/svg" width="197.635" height="90.892" viewBox="0 0 197.635 90.892"><defs><style>.a{fill:#ff9708;}</style></defs><g transform="translate(-82.001 8.992)"><g transform="translate(82.001 -8.992)"><path class="a" d="M111.5,29.9c-3.359,1.67-6.746,3.286-10.1,4.96h-.018a.511.511,0,1,1-.453-.917A100.387,100.387,0,0,0,111.5,27.424a.924.924,0,0,0-.453.116c-4.018,2-8.094,3.848-12.2,5.656-.5.221-.9.312-1.3-.257,4.413-1.989,8.6-4.435,13.239-5.888a.471.471,0,0,0-.308-.033c-.572.1-1.149.188-1.717.315-4.268.971-8.271,2.725-12.347,4.257a1.514,1.514,0,0,1-.558.112,17.742,17.742,0,0,1-5.206,2.536,8.29,8.29,0,0,1-1.971.373.406.406,0,0,0-.145.036c-2.862,1.159-5.728,2.312-8.583,3.489-.388.159-.594,0-.859-.225a18.666,18.666,0,0,0-20.539-2.536A36.534,36.534,0,0,0,52.5,39.551c-2.261,1.768-4.674,3.13-7.67,3.029-.471,0-.471.159-.341.533a5.367,5.367,0,0,1,.536,2.645,5.859,5.859,0,0,1-3.076,4.373c-2.935,1.674-6.221,1.964-9.5,2.232h-.069c-1.7-.047-2.431-.688-2.369-2.014.04-.833.072-1.663.112-2.558a.514.514,0,0,0-.9-.362c-1.014,1.156-1.895,2.174-2.8,3.33a.551.551,0,0,1-.145.13c-3.134,1.9-6.612,2.362-10.014,3.123a17.576,17.576,0,0,0-9.648,5.1,25,25,0,0,0-6.583,16.2c-.475,11.21,4.3,20.083,12.681,27.173a13.715,13.715,0,0,0,8.8,3.464,1.308,1.308,0,0,1,.678.3,12.88,12.88,0,0,0,5.141,1.754,14.256,14.256,0,0,0,11.822-3.985,63.851,63.851,0,0,0,5.2-5.83c.471-.558.953-1.087,1.449-1.6a.514.514,0,0,0,0-.725,2.221,2.221,0,0,1-.46-2.217c.109-.362.221-.746.337-1.127-1.569.993-6.221,6.924-6.58,7.272a27.486,27.486,0,0,1-1.812,2.123,11.268,11.268,0,0,1-.96,1.054,12.96,12.96,0,0,1-7.123,3.446,13.637,13.637,0,0,1-4.54-.033.514.514,0,0,1-.138-.96C29.8,102.813,40.7,92.2,42.644,90.466a.511.511,0,0,0,.13-.583,2.218,2.218,0,0,1-.1-.286c-.091-.315-.17-.634-.246-.953a.511.511,0,0,0-.855-.246c-2.619,2.536-4.536,5.663-6.935,8.395a30.149,30.149,0,0,1-6.344,5.8c-3.319,2.174-6.808,3.174-10.594,1.681A18.248,18.248,0,0,1,10.866,99.2c-.5-.551-.975-1.12-1.42-1.714a.514.514,0,0,1,.7-.721l.069.04a.514.514,0,0,0,.706-.156A176.754,176.754,0,0,1,21.659,81.792c1.449-1.812,2.964-3.58,4.449-5.369.076-.091.221-.145.163-.417a56.883,56.883,0,0,0-5.728,4.71c-1.2,1.087-2.355,2.257-3.485,3.435a.514.514,0,0,1-.848-.543c1.112-2.848,2.341-5.652,3.536-8.5a.512.512,0,1,0-.906-.478c-1.667,2.609-3.7,6.051-4.859,8.29-2.007,3.866-3.721,7.851-5.511,11.92a.514.514,0,0,1-.888.091A20.786,20.786,0,0,1,6.16,92.553,29.5,29.5,0,0,1,2.515,74.828c.7-5.666,2.772-10.71,7.1-14.634a14.337,14.337,0,0,1,6.543-3.04c2.174-.5,10.507-2.9,11.362-3.551.268-.2.413,0,.569.149A5.138,5.138,0,0,0,32.268,55.4c3.677-.228,7.348-.674,10.623-2.536a8.468,8.468,0,0,0,4.732-7.608c0-.293.033-.46.362-.547,2.572-.688,4.587-2.315,6.587-3.96a31.2,31.2,0,0,1,4.768-3.623,17.878,17.878,0,0,1,16.021-.859,14.652,14.652,0,0,1,2.967,1.659.514.514,0,0,1-.1.895c-1.293.536-2.536,1.054-3.786,1.576-11.4,4.79-22.746,9.713-33.945,14.945a78.794,78.794,0,0,0-7.431,3.906c-.388.246-4.348,3.036-4.772,3.235a41.427,41.427,0,0,0-4.561,4.373c6.982-5.84,15.463-8.7,23.728-11.956-1.109.627-2.21,1.268-3.33,1.877A104.176,104.176,0,0,0,29.275,66.1a19.6,19.6,0,0,0-5,5.554,32.247,32.247,0,0,1,3.1-2.949,58.106,58.106,0,0,1,9.877-5.964c8.253-4.315,16.789-8,25.362-11.594,8.768-3.663,17.586-7.21,26.22-11.184,1.5-.688,2.982-1.406,4.464-2.127.38-.185.7-.283,1.014.217-1.424.652-2.819,1.3-4.221,1.927-8.561,3.833-17.144,7.608-25.5,11.884-4.315,2.206-8.565,4.518-12.681,7.072a1.272,1.272,0,0,1-1.062.217,3.112,3.112,0,0,0-2.007.2,71.405,71.405,0,0,0-13.96,7.2A29.271,29.271,0,0,0,28.2,73.017a6.942,6.942,0,0,1-1.232,1.333,1.87,1.87,0,0,1-2.9-.362,4.076,4.076,0,0,1-.634-1.12c-.145-.4-.279-.808-.453-1.2a4.982,4.982,0,0,0,.928,2.949c.917,1.2,2.536,1.264,3.924.2A16.71,16.71,0,0,0,29.648,73a35.454,35.454,0,0,1,10.507-7.264c3.04-1.471,6.2-2.659,9.329-3.9a2.507,2.507,0,0,1,2.105.12.511.511,0,0,0,.489,0C62.27,55.963,72.984,50.978,83.6,45.8c.25-.123,7.641-4.275,9.895-5.311a30.394,30.394,0,0,1,4.92-2.772l.746-.315a12.2,12.2,0,0,1,3.159-1.246.5.5,0,0,0,.138-.054c1.395-.822,2.714-1.591,4.022-2.369,2.018-1.217,4.025-2.413,5.909-3.783a3.987,3.987,0,0,0,1.764-2.464A5.51,5.51,0,0,1,111.5,29.9ZM84.922,39c2.036-1.362,6.159-3.058,6.786-2.779Z" transform="translate(-0.001 -17.224)"/><path class="a" d="M320.912,19.5c.768.156,1.388.239,1.985.409a2.686,2.686,0,0,1,2.058,3.29,3.014,3.014,0,0,1-3.482,2.333,2.83,2.83,0,0,1-1.449-.612c-.312-.29-.42-.181-.558.17a3.286,3.286,0,0,1-3.025,2.072,3.17,3.17,0,0,1-3.17-1.674,2.359,2.359,0,0,1-.257-2.051c.268-.659.326-1.145-.446-1.533a1.989,1.989,0,0,1,1.5,0,9.018,9.018,0,0,1-.54-1.206c-.13-.485-.362-.424-.7-.25a36.121,36.121,0,0,1-3.525,1.786,4.585,4.585,0,0,1-3.4.12,1.846,1.846,0,0,1-1.228-1.67,1.979,1.979,0,0,0,1.909.909,4.2,4.2,0,0,0,1.964-.764c.862-.627,1.706-1.275,2.536-1.935a8.3,8.3,0,0,1,4.989-1.786c.909-.033,1.812-.054,2.725-.152a5.072,5.072,0,0,0,4.029-3.75,2.887,2.887,0,0,0-1.489-2.855,2.742,2.742,0,0,0-3.083-.17,2.1,2.1,0,0,0-.764,2.3,2.49,2.49,0,0,1,1.087-3.895,4.593,4.593,0,0,1,5.04.8,4.522,4.522,0,0,1,1.714,4.942A8.012,8.012,0,0,1,320.912,19.5Zm-2.446,1.518c1.174-.344,1.341-.268,1.677.743a1.656,1.656,0,0,0,.888.982c.33.156.793.312,1.025-.091.279-.485-.283-.6-.533-.725a4.13,4.13,0,0,1-2.043-1.841.438.438,0,0,0-.482-.25c-.957.029-1.917,0-2.873.018a5.445,5.445,0,0,0-2.174.243c1.471,1.065,3.239,1.254,4.71,2.043C319.083,21.68,318.945,21.314,318.467,21.017ZM314.5,22.372c.072.449.109.793.192,1.127a1.159,1.159,0,0,0,1.5.87c.152-.058.38-.076.388-.3s-.178-.239-.3-.3a7.362,7.362,0,0,1-1.779-1.391Z" transform="translate(-194.286 -5.202)"/><path class="a" d="M295.595,9.346c.406-.75,1.167-1.152,1.315-1.71s-.812-.96-.942-1.652a3,3,0,0,0-.246-.725c-.185-.391-.2-1.025-.956-.594-.641.362-.761.645-.362,1.312.181.3.413.562.627.851a2.3,2.3,0,0,1-3.058-2.438,3.388,3.388,0,0,1,2.471-2.7,2.482,2.482,0,0,1,2.786.855,2.9,2.9,0,0,1,.63,2.42c-.123.725-.283,1.449-.46,2.384a9.006,9.006,0,0,1,2.927-1.29,9.467,9.467,0,0,1,3.091-.174,3.362,3.362,0,0,1-.688-2.174,1.025,1.025,0,0,0-.942-1.036c-.507-.043-.7.42-.826.851-.033.116-.083.232-.13.362a1.536,1.536,0,0,1-1.014-1.565A2.152,2.152,0,0,1,300.932.368a2.87,2.87,0,0,1,3.533.6,2.9,2.9,0,0,1,.246,3.518c-.072.1-.163.192-.243.29-.688.851-.62,1.145.406,1.409,1.554.4,2.775,1.449,4.177,2.134.2.1.4.214.652.362A3.554,3.554,0,0,1,307.3,9.2a45.85,45.85,0,0,0-6.344-.467,51,51,0,0,0-5.359.616Z" transform="translate(-186.178 -0.008)"/><path class="a" d="M86.473,149.469a2.187,2.187,0,0,1-3.1,1.786,3.913,3.913,0,0,1-2.127-4.239,12.331,12.331,0,0,1,4.59-7.8c3.221-2.757,7.108-4.011,11.17-4.844,1.485-.3,2.985-.543,4.478-.819a4.25,4.25,0,0,0,1.688-.656,1.634,1.634,0,0,0,.7-.964.815.815,0,0,0-.2-.909.678.678,0,0,0-.9.083c-.072.062-.141.134-.275.069a1.087,1.087,0,0,1,1.058-.812,1.2,1.2,0,0,1,1.145.725,2.29,2.29,0,0,1-.123,2.25,4.409,4.409,0,0,1-2.319,1.88c-2.308.92-4.71,1.525-7.065,2.341-3.59,1.246-7.007,2.808-9.608,5.706a10.068,10.068,0,0,0-2.359,4.022,4.156,4.156,0,0,0-.145.895A2.265,2.265,0,0,0,84.3,150.44C84.97,150.719,85.647,150.433,86.473,149.469Z" transform="translate(-51.779 -83.137)"/><path class="a" d="M256.967,213.416l.315.333a6.449,6.449,0,1,1,.109-9.246.361.361,0,0,0,.058.076l-.333.312-.054-.054a6,6,0,1,0-.094,8.579Z" transform="translate(-157.122 -129.215)"/><path class="a" d="M294.455,215.06h-.46v-2.638a6.884,6.884,0,0,1-.96,1.188,6.449,6.449,0,1,1,0-9.134,7.609,7.609,0,0,1,.96,1.221v-2.641h.46Zm-.46-3.623v-4.71a5.958,5.958,0,1,0,0,4.71Z" transform="translate(-179.85 -129.196)"/><path class="a" d="M328.24,209.848v6.018h-.46V203.873h.46V207.5a5.927,5.927,0,0,1,1.29-1.884,5.8,5.8,0,0,1,4.243-1.754v.464a5.511,5.511,0,0,0-5.532,5.514Z" transform="translate(-209.023 -130.002)"/><path class="a" d="M347.268,215.886l-4.348-11.992h.514L347.55,215.2l4.094-11.315h.518l-4.348,11.992Z" transform="translate(-218.677 -130.022)"/><path class="a" d="M384.735,215.079h-.46v-2.638a6.886,6.886,0,0,1-.96,1.2,6.449,6.449,0,1,1,0-9.134,7.607,7.607,0,0,1,.96,1.221v-2.641h.46Zm-.46-3.623v-4.71a5.958,5.958,0,1,0,0,4.71Z" transform="translate(-237.421 -129.215)"/><path class="a" d="M417.244,195v15.217h-.464V195Z" transform="translate(-265.777 -124.353)"/><path class="a" d="M428.24,195h.46v5.848a6.586,6.586,0,0,1,1.014-1.344,6,6,0,0,1,10.239,4.243v6.471h-.46v-6.478a5.54,5.54,0,0,0-10.757-1.855H428.7v8.333h-.46Z" transform="translate(-273.085 -124.353)"/><path class="a" d="M478.059,204.51a6.456,6.456,0,1,1-4.565-1.891A6.221,6.221,0,0,1,478.059,204.51Zm-4.565-1.449a5.985,5.985,0,1,0,4.243,1.754,5.8,5.8,0,0,0-4.243-1.735Z" transform="translate(-297.826 -129.211)"/><path class="a" d="M181.144,108.389c2.341-3.261,4.109-6.014,4.109-7.427,0-2.069-1.685-2.395-2.83-2.536-8.217-1.141-20.652,8.409-20.652,13.09a.971.971,0,0,0,1.062,1.007c3.127,0,10.2-3.674,14.829-7.54.435-.38.362,0,.054.409-4.9,5.688-9.985,8.7-13.061,8.7a5.128,5.128,0,0,1-4.815-4.518c0-5.743,11.507-13.358,20.6-12.869a7.061,7.061,0,0,1,6.775,6.938c0,.815-1.007,2.558-2.583,4.761,3.507-3.482,9.713-8.844,11.373-8.844a2.894,2.894,0,0,1,2.2,1.225c.652.786.953,1.812.518,2.1-1.308.841-2.478,2.341-5.435,6.449-1.3,1.956-3.344,5.279-4.815,7.945,3.783-5.224,13.8-15.673,18.231-17.688,1.688-.761,4.08,2.775,3.21,3.427-1.851,1.362-4.109,4.163-7.022,8.192-2.065,2.855-7.724,11.862-7.561,15.673A2.086,2.086,0,0,0,196.745,129c2.424.652,8.333-2.7,11.319-5.224.167-.138.438-.217.192.134-3.427,4.681-6.993,6.315-9.2,6.315-3.293,0-6.159-2.967-6.123-5.554.163-6.583,11.511-21.2,14.775-23.912.134-.109.025-.192-.054-.192-1.525.083-6.206,4.409-7.54,5.634a104.689,104.689,0,0,0-10.869,11.347c-2.232,2.993-3.754,5.931-3.783,6.938a1.279,1.279,0,0,0,.464,1.007,3.09,3.09,0,0,1-2.75-2.667c-.362-1.812,6.159-13.88,13.116-22.043.083-.08,0-.243-.163-.188a28.9,28.9,0,0,0-4.869,3.29,108.728,108.728,0,0,0-16.9,18.231c-1.5,2.123-2.123,3.837-2.123,4.735,0,.326.109.572.3.6.3.109-.083.406-.464.326s-2.069-1.989-1.848-3.076a21.009,21.009,0,0,1,2.446-4.844C174.966,116.175,178.423,112.012,181.144,108.389Z" transform="translate(-101.929 -61.654)"/><path class="a" d="M291.5,133.042a4.121,4.121,0,0,1,.844,1.576c0,.058-.029.083-.054.138l-.681.761c-2.366,2.7-3.783,5.072-3.808,5.551,0,.083,0,.138.134.138.6,0,5.279-3.783,8.873-7.264.188-.192.38.025.243.217-1.279,1.793-7.674,8.518-9.387,9.007a.362.362,0,0,1-.134.025,3.285,3.285,0,0,1-2.478-2.746,1.009,1.009,0,0,1,.054-.272,29.888,29.888,0,0,1,3.21-4.518l-1.812,1.659c-3.058,2.815-6.869,5.873-7.927,5.873-.79,0-2.558-1.743-2.558-3.047,0-1.743,2.612-5.09,5.714-7.674,2.638-2.206,5.634-3.946,7.59-3.946,2.152,0,3.891,1.413,3.891,3.047C293.215,131.955,292.346,132.643,291.5,133.042Zm-1.3-.9c-.029,0,.134-.163.569.138a1.891,1.891,0,0,1,.409.362,3.093,3.093,0,0,0,.815-2.261.779.779,0,0,0-.87-.6,2.92,2.92,0,0,0-.681.083c-1.985.435-4.38,2.12-6.522,4.134-3.076,2.9-5.634,6.123-5.634,7.047,0,.083.029.192.217.192,1.036,0,11.594-6.8,11.811-8.924a.243.243,0,0,0-.116-.163Z" transform="translate(-176.016 -81.959)"/><path class="a" d="M324.057,140.6c-.518.953-.681,1.58-.6,1.717.188.163-.054.272-.362.217s-1.768-1.688-1.5-2.5a9.177,9.177,0,0,1,1.033-1.906l1.417-2.094c1.116-1.634,3.022-4.348,3.7-5.388s1.062-2.1.572-2.341c-.029,0,.217-.217.9.362a5.323,5.323,0,0,1,1.467,2.152,21.824,21.824,0,0,1-2.558,3.7c.681-.761,1.417-1.5,2.206-2.232,1.551-1.388,4.761-4.134,6.04-4.406.572-.109,1.5,1.087,1.417,2.395a2.729,2.729,0,0,1-.547,1.551A1.3,1.3,0,0,0,337,131a1.707,1.707,0,0,0-1.525-.489c-1.659.192-3.348,1.308-5.333,2.993A26.436,26.436,0,0,0,324.057,140.6Z" transform="translate(-205.061 -81.545)"/><path class="a" d="M360.372,119.013c.681-1.062,1.062-2.1.572-2.341-.025,0,.217-.217.9.362a5.1,5.1,0,0,1,1.417,2.152c-.033.38-1.743,2.475-3.811,5.388-1.359,1.931-2.536,3.891-2.536,4.435,0,.08.025.134.134.134.572,0,5.17-3.725,8.79-7.246.192-.192.409,0,.272.188-.6.79-1.906,2.286-3.7,4.163s-5.022,4.884-5.844,4.884a1.946,1.946,0,0,1-1.2-.569,2.967,2.967,0,0,1-1.17-1.851,1.257,1.257,0,0,1,.109-.435C355.176,126.005,358.5,121.868,360.372,119.013Zm2.612-4.029a11.721,11.721,0,0,0,1.634-4.652.692.692,0,0,0-.409-.681s.246-.188,1.036.326A4.25,4.25,0,0,1,366.9,112.4c0,.054-.025.08-.083.163a26.391,26.391,0,0,1-3.235,2.775.362.362,0,0,1-.6-.355Z" transform="translate(-225.869 -69.905)"/><path class="a" d="M390.418,133.042a4.121,4.121,0,0,1,.844,1.576c0,.058-.029.083-.054.138l-.681.761c-2.369,2.7-3.782,5.072-3.811,5.551,0,.083,0,.138.138.138.6,0,5.279-3.783,8.869-7.264.192-.192.384.025.246.217-1.279,1.793-7.674,8.518-9.387,9.007a.4.4,0,0,1-.138.025,3.281,3.281,0,0,1-2.475-2.746.883.883,0,0,1,.054-.272,29.582,29.582,0,0,1,3.21-4.518l-1.812,1.659c-3.058,2.815-6.869,5.873-7.924,5.873-.786,0-2.558-1.743-2.558-3.047,0-1.743,2.612-5.09,5.717-7.674,2.638-2.206,5.63-3.946,7.59-3.946,2.148,0,3.891,1.413,3.891,3.047C392.132,131.955,391.266,132.643,390.418,133.042Zm-1.308-.9c-.025,0,.138-.163.572.138a1.89,1.89,0,0,1,.409.362,3.093,3.093,0,0,0,.815-2.261.779.779,0,0,0-.87-.6,2.92,2.92,0,0,0-.681.083c-1.985.435-4.38,2.12-6.522,4.134-3.072,2.9-5.63,6.123-5.63,7.047,0,.083.025.192.217.192,1.033,0,11.594-6.8,11.808-8.924a.232.232,0,0,0-.12-.163Z" transform="translate(-239.096 -81.959)"/><path class="a" d="M434.361,136.614c-1.525,2.094-2.75,3.985-2.775,4.572,0,.08.025.134.134.134.6,0,5.116-3.7,8.79-7.246.192-.192.38.025.246.217-.6.761-2.043,2.449-3.674,4.134-1.768,1.812-4.982,4.9-5.851,4.9-1.033,0-2.475-1.793-2.395-2.83a1.065,1.065,0,0,1,.054-.272,35.233,35.233,0,0,1,3.54-5.5c1.279-1.768,3.4-4.326,3.4-4.409a.054.054,0,0,0-.054-.054,22.633,22.633,0,0,0-6.5,4.572c-2.612,2.475-7.21,7.076-6.964,7.92.025.054.054.109.109.109.243.08-.054.272-.362.217a3.78,3.78,0,0,1-1.449-2.5c.272-1.525,4.054-6.1,6.2-9.387.681-1.062,1.062-2.1.572-2.341-.025,0,.217-.217.9.362a5.1,5.1,0,0,1,1.417,2.152c0,.543-2.967,4.134-5.145,7.181,1.2-1.449,2.75-3.018,4.138-4.38,1.141-1.116,6.123-5.435,7.319-5.435a1.529,1.529,0,0,1,.978.572,6.177,6.177,0,0,1,1.417,2.257.414.414,0,0,1-.054.163C437.046,133.3,436.075,134.262,434.361,136.614Z" transform="translate(-268.21 -82.093)"/><path class="a" d="M479.625,133.042a4.122,4.122,0,0,1,.844,1.576c0,.058-.029.083-.054.138l-.681.761c-2.37,2.7-3.782,5.072-3.811,5.551,0,.083,0,.138.138.138.6,0,5.279-3.783,8.869-7.264.192-.192.384.025.246.217-1.279,1.793-7.674,8.518-9.387,9.007a.394.394,0,0,1-.138.025,3.282,3.282,0,0,1-2.475-2.746.884.884,0,0,1,.054-.272,29.578,29.578,0,0,1,3.21-4.518l-1.812,1.659c-3.058,2.815-6.869,5.873-7.931,5.873-.786,0-2.558-1.743-2.558-3.047,0-1.743,2.612-5.09,5.717-7.674,2.638-2.206,5.63-3.946,7.59-3.946,2.148,0,3.891,1.413,3.891,3.047C481.339,131.955,480.469,132.643,479.625,133.042Zm-1.308-.9c-.025,0,.138-.163.572.138a1.89,1.89,0,0,1,.409.362,3.093,3.093,0,0,0,.815-2.261.779.779,0,0,0-.87-.6,2.921,2.921,0,0,0-.681.083c-1.985.435-4.38,2.12-6.522,4.134-3.072,2.9-5.63,6.123-5.63,7.047,0,.083.025.192.217.192,1.033,0,11.594-6.8,11.808-8.924a.232.232,0,0,0-.12-.163Z" transform="translate(-295.978 -81.959)"/><path class="a" d="M274.421,185.77l-66.476-.786-74.157-.754v.12h.022c-.33.493-.67.978-1.029,1.449l1.007.062v.21h3.485q2.105.12,4.214.232c-.138.207-.254.312-.275.424-.112.616-.591.725-1.29.652a17.03,17.03,0,0,0-1.812.022c-.58,0-1.243.337-1.7.1s-.362-.833-.565-1.254a2.959,2.959,0,0,0-1.417,3.1c.054.246.315.2.493.228a20.7,20.7,0,0,0,6.619-.149c1.109-.214,1.706-.993,1.409-1.793-.08-.217-.221-.42-.322-.634-.268-.576-.207-.645.543-.616.449,0,.9.04,1.348.047a27.23,27.23,0,0,0,5.851-.362h50.143l7.406.116,18.539.116,9.268.054,4.638.022H245l18.543-.083,9.275-.127,4.638-.065h4.851v-.3Zm-128.982,0-.594-.069q-5.1-.7-10.213-1.312l3.783.167,4.634.167,9.264.33,18.532.489,4.634.123,4.634.08,1.554.025Z" transform="translate(-84.673 -117.485)"/></g></g></svg>