<svg xmlns="http://www.w3.org/2000/svg" width="33.598" height="33.589" viewBox="0 0 33.598 33.589"><defs><style>.a{fill:#af8041;}</style></defs><path class="a" d="M623.777,66.369h2.1c.084.019.166.043.251.056.862.136,1.736.217,2.584.414a16.342,16.342,0,0,1-2.407,32.19,16.656,16.656,0,0,1-9.253-1.848.657.657,0,0,0-.453-.039q-4.45,1.4-8.893,2.817v-.066c.035-.08.075-.157.1-.239q1.4-4.122,2.784-8.248a.657.657,0,0,0-.067-.475,16.111,16.111,0,0,1-2.2-7.829,15.822,15.822,0,0,1,3.2-10.047,16.16,16.16,0,0,1,10.062-6.361C622.3,66.549,623.044,66.476,623.777,66.369ZM611.851,95.906c1.694-.539,3.315-1.049,4.932-1.576a.784.784,0,0,1,.728.083A13.8,13.8,0,0,0,636.947,76.1a13.863,13.863,0,0,0-19.789-4.819,13.653,13.653,0,0,0-3.741,19.271.525.525,0,0,1,.067.541c-.2.554-.383,1.114-.571,1.673C612.567,93.787,612.222,94.809,611.851,95.906Z" transform="translate(-607.704 -66.369)"/><path class="a" d="M676.435,130.9c.709-.2,1.015.272,1.257.893.36.925.759,1.835,1.149,2.747a.785.785,0,0,1-.031.811c-.309.434-.626.864-.966,1.274-.31.374-.339.511-.086.931a10.984,10.984,0,0,0,5.514,4.685.607.607,0,0,0,.838-.207q.61-.729,1.2-1.473c.281-.353.438-.439.844-.256,1.142.517,2.274,1.059,3.4,1.616a.593.593,0,0,1,.266.436,3,3,0,0,1-1.263,2.784,4.49,4.49,0,0,1-4.07.654,16.009,16.009,0,0,1-5.825-2.881,20.342,20.342,0,0,1-4.371-5.273,5.522,5.522,0,0,1-.819-3.7,4.535,4.535,0,0,1,1.539-2.74A1.678,1.678,0,0,1,676.435,130.9Z" transform="translate(-664.358 -121.965)"/></svg>